<mxfile host="app.diagrams.net" modified="2022-11-05T03:38:38.522Z" agent="5.0 (X11; Linux x86_64) AppleWebKit/537.36 (KHTML, like Gecko) Chrome/106.0.0.0 Safari/537.36" etag="c7EwIgzu0VUptaLOG7YJ" version="20.5.1" type="github">
  <diagram id="tMJHJyq9_SG65SBNVNj1" name="第 1 页">
    <mxGraphModel dx="1422" dy="748" grid="1" gridSize="10" guides="1" tooltips="1" connect="1" arrows="1" fold="1" page="1" pageScale="1" pageWidth="827" pageHeight="1169" math="0" shadow="0">
      <root>
        <mxCell id="0" />
        <mxCell id="1" parent="0" />
        <mxCell id="xNpDRAaouzpVLvZzgda3-1" value="服务端" style="rounded=0;whiteSpace=wrap;html=1;" vertex="1" parent="1">
          <mxGeometry x="520" y="210" width="90" height="170" as="geometry" />
        </mxCell>
        <mxCell id="xNpDRAaouzpVLvZzgda3-9" style="edgeStyle=none;rounded=0;orthogonalLoop=1;jettySize=auto;html=1;exitX=1;exitY=0.5;exitDx=0;exitDy=0;entryX=0.022;entryY=0.453;entryDx=0;entryDy=0;entryPerimeter=0;" edge="1" parent="1" source="xNpDRAaouzpVLvZzgda3-5" target="xNpDRAaouzpVLvZzgda3-1">
          <mxGeometry relative="1" as="geometry" />
        </mxCell>
        <mxCell id="xNpDRAaouzpVLvZzgda3-5" value="内部接口" style="ellipse;whiteSpace=wrap;html=1;" vertex="1" parent="1">
          <mxGeometry x="294" y="160" width="120" height="60" as="geometry" />
        </mxCell>
        <mxCell id="xNpDRAaouzpVLvZzgda3-10" style="edgeStyle=none;rounded=0;orthogonalLoop=1;jettySize=auto;html=1;exitX=1;exitY=0.5;exitDx=0;exitDy=0;" edge="1" parent="1" source="xNpDRAaouzpVLvZzgda3-6">
          <mxGeometry relative="1" as="geometry">
            <mxPoint x="520" y="290" as="targetPoint" />
          </mxGeometry>
        </mxCell>
        <mxCell id="xNpDRAaouzpVLvZzgda3-6" value="外部开放接口" style="ellipse;whiteSpace=wrap;html=1;" vertex="1" parent="1">
          <mxGeometry x="294" y="250" width="120" height="60" as="geometry" />
        </mxCell>
        <mxCell id="xNpDRAaouzpVLvZzgda3-11" style="edgeStyle=none;rounded=0;orthogonalLoop=1;jettySize=auto;html=1;exitX=1;exitY=0.5;exitDx=0;exitDy=0;entryX=0;entryY=0.5;entryDx=0;entryDy=0;" edge="1" parent="1" source="xNpDRAaouzpVLvZzgda3-7" target="xNpDRAaouzpVLvZzgda3-1">
          <mxGeometry relative="1" as="geometry" />
        </mxCell>
        <mxCell id="xNpDRAaouzpVLvZzgda3-7" value="外部需鉴权接口" style="ellipse;whiteSpace=wrap;html=1;" vertex="1" parent="1">
          <mxGeometry x="294" y="340" width="120" height="60" as="geometry" />
        </mxCell>
        <mxCell id="xNpDRAaouzpVLvZzgda3-12" value="L1" style="text;html=1;align=center;verticalAlign=middle;resizable=0;points=[];autosize=1;strokeColor=none;fillColor=none;" vertex="1" parent="1">
          <mxGeometry x="450" y="210" width="40" height="30" as="geometry" />
        </mxCell>
        <mxCell id="xNpDRAaouzpVLvZzgda3-13" value="L2" style="text;html=1;align=center;verticalAlign=middle;resizable=0;points=[];autosize=1;strokeColor=none;fillColor=none;" vertex="1" parent="1">
          <mxGeometry x="440" y="260" width="40" height="30" as="geometry" />
        </mxCell>
        <mxCell id="xNpDRAaouzpVLvZzgda3-14" value="L3" style="text;html=1;align=center;verticalAlign=middle;resizable=0;points=[];autosize=1;strokeColor=none;fillColor=none;" vertex="1" parent="1">
          <mxGeometry x="440" y="310" width="40" height="30" as="geometry" />
        </mxCell>
      </root>
    </mxGraphModel>
  </diagram>
</mxfile>
